%TF.GenerationSoftware,KiCad,Pcbnew,8.0.8*%
%TF.CreationDate,2025-03-04T21:19:46+00:00*%
%TF.ProjectId,Servo Frog V4 Rev B,53657276-6f20-4467-926f-672056342052,rev?*%
%TF.SameCoordinates,Original*%
%TF.FileFunction,Copper,L2,Bot*%
%TF.FilePolarity,Positive*%
%FSLAX46Y46*%
G04 Gerber Fmt 4.6, Leading zero omitted, Abs format (unit mm)*
G04 Created by KiCad (PCBNEW 8.0.8) date 2025-03-04 21:19:46*
%MOMM*%
%LPD*%
G01*
G04 APERTURE LIST*
%TA.AperFunction,ComponentPad*%
%ADD10C,1.416000*%
%TD*%
%TA.AperFunction,ComponentPad*%
%ADD11C,1.524000*%
%TD*%
%TA.AperFunction,ComponentPad*%
%ADD12R,1.524000X1.524000*%
%TD*%
%TA.AperFunction,ComponentPad*%
%ADD13R,1.650000X1.650000*%
%TD*%
%TA.AperFunction,ComponentPad*%
%ADD14C,1.650000*%
%TD*%
%TA.AperFunction,ComponentPad*%
%ADD15R,1.350000X1.350000*%
%TD*%
%TA.AperFunction,ComponentPad*%
%ADD16C,1.350000*%
%TD*%
%TA.AperFunction,ComponentPad*%
%ADD17R,1.950000X1.950000*%
%TD*%
%TA.AperFunction,ComponentPad*%
%ADD18C,1.950000*%
%TD*%
%TA.AperFunction,Conductor*%
%ADD19C,1.000000*%
%TD*%
%TA.AperFunction,Conductor*%
%ADD20C,0.200000*%
%TD*%
%TA.AperFunction,Conductor*%
%ADD21C,0.500000*%
%TD*%
G04 APERTURE END LIST*
D10*
%TO.P,Fr4 J,1,K*%
%TO.N,Net-(LED1-K)*%
X160274000Y-108204000D03*
%TO.P,Fr4 J,2,A*%
%TO.N,OUT2*%
X160274000Y-110744000D03*
%TD*%
D11*
%TO.P,U2,1,1A*%
%TO.N,OUT8*%
X177292000Y-67310000D03*
%TO.P,U2,2,1C*%
%TO.N,Net-(U2-1C)*%
X177292000Y-69850000D03*
%TO.P,U2,3,2A*%
%TO.N,OUT7*%
X177292000Y-72390000D03*
%TO.P,U2,4,2C*%
%TO.N,Net-(U2-1C)*%
X177292000Y-74930000D03*
%TO.P,U2,5,2D*%
%TO.N,K*%
X184912000Y-74930000D03*
%TO.P,U2,6,2D*%
%TO.N,Frog1*%
X184912000Y-72390000D03*
%TO.P,U2,7,1D*%
X184912000Y-69850000D03*
%TO.P,U2,8,1D*%
%TO.N,J*%
X184912000Y-67310000D03*
%TD*%
%TO.P,R7,1*%
%TO.N,Net-(U3-1C)*%
X170556800Y-81432400D03*
%TO.P,R7,2*%
%TO.N,0V*%
X170556800Y-91592400D03*
%TD*%
%TO.P,U3,1,1A*%
%TO.N,OUT6*%
X177292000Y-80772000D03*
%TO.P,U3,2,1C*%
%TO.N,Net-(U3-1C)*%
X177292000Y-83312000D03*
%TO.P,U3,3,2A*%
%TO.N,OUT5*%
X177292000Y-85852000D03*
%TO.P,U3,4,2C*%
%TO.N,Net-(U3-1C)*%
X177292000Y-88392000D03*
%TO.P,U3,5,2D*%
%TO.N,K*%
X184912000Y-88392000D03*
%TO.P,U3,6,2D*%
%TO.N,Frog2*%
X184912000Y-85852000D03*
%TO.P,U3,7,1D*%
X184912000Y-83312000D03*
%TO.P,U3,8,1D*%
%TO.N,J*%
X184912000Y-80772000D03*
%TD*%
D12*
%TO.P,U1,1,GP0*%
%TO.N,unconnected-(U1-GP0-Pad1)*%
X129752000Y-68522000D03*
D11*
%TO.P,U1,2,GP1*%
%TO.N,unconnected-(U1-GP1-Pad2)*%
X129752000Y-71062000D03*
%TO.P,U1,3,GND*%
%TO.N,0V*%
X129752000Y-73602000D03*
%TO.P,U1,4,GP2*%
%TO.N,unconnected-(U1-GP2-Pad4)*%
X129752000Y-76142000D03*
%TO.P,U1,5,GP3*%
%TO.N,unconnected-(U1-GP3-Pad5)*%
X129752000Y-78682000D03*
%TO.P,U1,6,GP4*%
%TO.N,unconnected-(U1-GP4-Pad6)*%
X129752000Y-81222000D03*
%TO.P,U1,7,GP5*%
%TO.N,unconnected-(U1-GP5-Pad7)*%
X129752000Y-83762000D03*
%TO.P,U1,8,GND*%
%TO.N,0V*%
X129752000Y-86302000D03*
%TO.P,U1,9,GP6*%
%TO.N,unconnected-(U1-GP6-Pad9)*%
X129752000Y-88842000D03*
%TO.P,U1,10,GP7*%
%TO.N,unconnected-(U1-GP7-Pad10)*%
X129752000Y-91382000D03*
%TO.P,U1,11,GP8*%
%TO.N,unconnected-(U1-GP8-Pad11)*%
X129752000Y-93922000D03*
%TO.P,U1,12,GP9*%
%TO.N,unconnected-(U1-GP9-Pad12)*%
X129752000Y-96462000D03*
%TO.P,U1,13,GND*%
%TO.N,0V*%
X129752000Y-99002000D03*
%TO.P,U1,14,GP10*%
%TO.N,unconnected-(U1-GP10-Pad14)*%
X129752000Y-101542000D03*
%TO.P,U1,15,GP11*%
%TO.N,unconnected-(U1-GP11-Pad15)*%
X129752000Y-104082000D03*
%TO.P,U1,16,GP12*%
%TO.N,Net-(U1-GP12)*%
X129752000Y-106622000D03*
%TO.P,U1,17,GP13*%
%TO.N,Net-(U1-GP13)*%
X129752000Y-109162000D03*
%TO.P,U1,18,GND*%
%TO.N,0V*%
X129752000Y-111702000D03*
%TO.P,U1,19,GP14*%
%TO.N,Net-(U1-GP14)*%
X129752000Y-114242000D03*
%TO.P,U1,20,GP15*%
%TO.N,Net-(U1-GP15)*%
X129752000Y-116782000D03*
%TO.P,U1,21,GP16*%
%TO.N,OUT1*%
X147532000Y-116782000D03*
%TO.P,U1,22,GP17*%
%TO.N,OUT2*%
X147532000Y-114242000D03*
%TO.P,U1,23,GND*%
%TO.N,0V*%
X147532000Y-111702000D03*
%TO.P,U1,24,GP18*%
%TO.N,OUT3*%
X147532000Y-109162000D03*
%TO.P,U1,25,GP19*%
%TO.N,OUT4*%
X147532000Y-106622000D03*
%TO.P,U1,26,GP20*%
%TO.N,OUT5*%
X147532000Y-104082000D03*
%TO.P,U1,27,GP21*%
%TO.N,OUT6*%
X147532000Y-101542000D03*
%TO.P,U1,28,GND*%
%TO.N,0V*%
X147532000Y-99002000D03*
%TO.P,U1,29,GP22*%
%TO.N,OUT7*%
X147532000Y-96462000D03*
%TO.P,U1,30,RUN*%
%TO.N,Net-(S1-NO)*%
X147532000Y-93922000D03*
%TO.P,U1,31,GP26*%
%TO.N,OUT8*%
X147532000Y-91382000D03*
%TO.P,U1,32,GP27*%
%TO.N,unconnected-(U1-GP27-Pad32)*%
X147532000Y-88842000D03*
%TO.P,U1,33,GND*%
%TO.N,0V*%
X147532000Y-86302000D03*
%TO.P,U1,34,GP28*%
%TO.N,unconnected-(U1-GP28-Pad34)*%
X147532000Y-83762000D03*
%TO.P,U1,35,ADC_VREF*%
%TO.N,unconnected-(U1-ADC_VREF-Pad35)*%
X147532000Y-81222000D03*
%TO.P,U1,36,3V3(OUT)*%
%TO.N,3V3*%
X147532000Y-78682000D03*
%TO.P,U1,37,3V3_EN*%
%TO.N,unconnected-(U1-3V3_EN-Pad37)*%
X147532000Y-76142000D03*
%TO.P,U1,38,GND*%
%TO.N,0V*%
X147532000Y-73602000D03*
%TO.P,U1,39,VSYS*%
%TO.N,5V*%
X147532000Y-71062000D03*
%TO.P,U1,40,VBUS*%
%TO.N,unconnected-(U1-VBUS-Pad40)*%
X147532000Y-68522000D03*
%TD*%
D13*
%TO.P,J3,1,1*%
%TO.N,0V*%
X195072000Y-72136000D03*
D14*
%TO.P,J3,2,2*%
%TO.N,J*%
X195072000Y-75636000D03*
%TO.P,J3,3,3*%
%TO.N,K*%
X195072000Y-79136000D03*
%TO.P,J3,4,4*%
%TO.N,12V*%
X195072000Y-82636000D03*
%TD*%
D11*
%TO.P,U4,1,1A*%
%TO.N,OUT4*%
X177038000Y-96520000D03*
%TO.P,U4,2,1C*%
%TO.N,Net-(U4-1C)*%
X177038000Y-99060000D03*
%TO.P,U4,3,2A*%
%TO.N,OUT3*%
X177038000Y-101600000D03*
%TO.P,U4,4,2C*%
%TO.N,Net-(U4-1C)*%
X177038000Y-104140000D03*
%TO.P,U4,5,2D*%
%TO.N,K*%
X184658000Y-104140000D03*
%TO.P,U4,6,2D*%
%TO.N,Frog3*%
X184658000Y-101600000D03*
%TO.P,U4,7,1D*%
X184658000Y-99060000D03*
%TO.P,U4,8,1D*%
%TO.N,J*%
X184658000Y-96520000D03*
%TD*%
%TO.P,R4,1*%
%TO.N,Net-(U4-1C)*%
X170688000Y-95504000D03*
%TO.P,R4,2*%
%TO.N,0V*%
X170688000Y-105664000D03*
%TD*%
%TO.P,R8,1*%
%TO.N,Net-(LED5-K)*%
X152675200Y-77012800D03*
%TO.P,R8,2*%
%TO.N,0V*%
X152675200Y-87172800D03*
%TD*%
D10*
%TO.P,Fr3 J,1,K*%
%TO.N,Net-(LED3-K)*%
X160274000Y-94488000D03*
%TO.P,Fr3 J,2,A*%
%TO.N,OUT4*%
X160274000Y-97028000D03*
%TD*%
D11*
%TO.P,R9,1*%
%TO.N,Net-(LED7-K)*%
X152603200Y-74218800D03*
%TO.P,R9,2*%
%TO.N,0V*%
X152603200Y-64058800D03*
%TD*%
%TO.P,U5,1,1A*%
%TO.N,OUT2*%
X177038000Y-110998000D03*
%TO.P,U5,2,1C*%
%TO.N,Net-(U5-1C)*%
X177038000Y-113538000D03*
%TO.P,U5,3,2A*%
%TO.N,OUT1*%
X177038000Y-116078000D03*
%TO.P,U5,4,2C*%
%TO.N,Net-(U5-1C)*%
X177038000Y-118618000D03*
%TO.P,U5,5,2D*%
%TO.N,K*%
X184658000Y-118618000D03*
%TO.P,U5,6,2D*%
%TO.N,Frog4*%
X184658000Y-116078000D03*
%TO.P,U5,7,1D*%
X184658000Y-113538000D03*
%TO.P,U5,8,1D*%
%TO.N,J*%
X184658000Y-110998000D03*
%TD*%
D10*
%TO.P,Fr2 K,1,K*%
%TO.N,Net-(LED5-K)*%
X160274000Y-87376000D03*
%TO.P,Fr2 K,2,A*%
%TO.N,OUT5*%
X160274000Y-89916000D03*
%TD*%
D11*
%TO.P,R5,1*%
%TO.N,Net-(U5-1C)*%
X170434000Y-110236000D03*
%TO.P,R5,2*%
%TO.N,0V*%
X170434000Y-120396000D03*
%TD*%
%TO.P,J4,1*%
%TO.N,0V*%
X116281200Y-96926400D03*
%TO.P,J4,2*%
X116281200Y-99466400D03*
%TO.P,J4,3*%
X116281200Y-102006400D03*
%TO.P,J4,4*%
X116281200Y-104546400D03*
%TO.P,J4,9*%
%TO.N,5V*%
X118821200Y-96926400D03*
%TO.P,J4,10*%
X118821200Y-99466400D03*
%TO.P,J4,11*%
X118821200Y-102006400D03*
%TO.P,J4,12*%
X118821200Y-104546400D03*
%TO.P,J4,17*%
%TO.N,Net-(U1-GP12)*%
X121361200Y-96926400D03*
%TO.P,J4,18*%
%TO.N,Net-(U1-GP13)*%
X121361200Y-99466400D03*
%TO.P,J4,19*%
%TO.N,Net-(U1-GP14)*%
X121361200Y-102006400D03*
%TO.P,J4,20*%
%TO.N,Net-(U1-GP15)*%
X121361200Y-104546400D03*
%TD*%
%TO.P,R2,1*%
%TO.N,Net-(LED3-K)*%
X152806400Y-94488000D03*
%TO.P,R2,2*%
%TO.N,0V*%
X152806400Y-104648000D03*
%TD*%
D15*
%TO.P,PS1,1,+VIN*%
%TO.N,12V*%
X167335200Y-61061600D03*
D16*
%TO.P,PS1,2,GND*%
%TO.N,0V*%
X164795200Y-61061600D03*
%TO.P,PS1,3,+VOUT*%
%TO.N,5V*%
X162255200Y-61061600D03*
%TD*%
D10*
%TO.P,Power,1,K*%
%TO.N,Net-(LED9-K)*%
X118364000Y-85344000D03*
%TO.P,Power,2,A*%
%TO.N,3V3*%
X118364000Y-87884000D03*
%TD*%
%TO.P,Fr4 K,1,K*%
%TO.N,Net-(LED1-K)*%
X160274000Y-114300000D03*
%TO.P,Fr4 K,2,A*%
%TO.N,OUT1*%
X160274000Y-116840000D03*
%TD*%
D17*
%TO.P,S1,T1,COM*%
%TO.N,0V*%
X118618000Y-77620000D03*
D18*
%TO.P,S1,T2,NO*%
%TO.N,Net-(S1-NO)*%
X118618000Y-71120000D03*
%TD*%
D10*
%TO.P,Fr1 J,1,K*%
%TO.N,Net-(LED7-K)*%
X160274000Y-68072000D03*
%TO.P,Fr1 J,2,A*%
%TO.N,OUT8*%
X160274000Y-70612000D03*
%TD*%
D11*
%TO.P,R3,1*%
%TO.N,Net-(LED9-K)*%
X124307600Y-81584800D03*
%TO.P,R3,2*%
%TO.N,0V*%
X124307600Y-91744800D03*
%TD*%
%TO.P,R1,1*%
%TO.N,Net-(LED1-K)*%
X152704800Y-108254800D03*
%TO.P,R1,2*%
%TO.N,0V*%
X152704800Y-118414800D03*
%TD*%
D10*
%TO.P,Fr3 K,1,K*%
%TO.N,Net-(LED3-K)*%
X160274000Y-100584000D03*
%TO.P,Fr3 K,2,A*%
%TO.N,OUT3*%
X160274000Y-103124000D03*
%TD*%
%TO.P,Fr2 J,1,K*%
%TO.N,Net-(LED5-K)*%
X160274000Y-81280000D03*
%TO.P,Fr2 J,2,A*%
%TO.N,OUT6*%
X160274000Y-83820000D03*
%TD*%
%TO.P,Fr1 K,1,K*%
%TO.N,Net-(LED7-K)*%
X160274000Y-74168000D03*
%TO.P,Fr1 K,2,A*%
%TO.N,OUT7*%
X160274000Y-76708000D03*
%TD*%
D11*
%TO.P,R6,1*%
%TO.N,Net-(U2-1C)*%
X170688000Y-67818000D03*
%TO.P,R6,2*%
%TO.N,0V*%
X170688000Y-77978000D03*
%TD*%
D13*
%TO.P,J2,1,1*%
%TO.N,Frog1*%
X195580000Y-97282000D03*
D14*
%TO.P,J2,2,2*%
%TO.N,Frog2*%
X195580000Y-100782000D03*
%TO.P,J2,3,3*%
%TO.N,Frog3*%
X195580000Y-104282000D03*
%TO.P,J2,4,4*%
%TO.N,Frog4*%
X195580000Y-107782000D03*
%TD*%
D19*
%TO.N,5V*%
X152254800Y-71062000D02*
X162255200Y-61061600D01*
X114300000Y-90119200D02*
X118872000Y-94691200D01*
X118821200Y-99466400D02*
X118821200Y-102006400D01*
X118821200Y-96926400D02*
X118821200Y-99466400D01*
X118872000Y-94691200D02*
X118872000Y-96723200D01*
X147532000Y-71062000D02*
X141928000Y-71062000D01*
X141928000Y-71062000D02*
X136906000Y-66040000D01*
X114300000Y-70612000D02*
X114300000Y-90119200D01*
X118872000Y-66040000D02*
X114300000Y-70612000D01*
X147532000Y-71062000D02*
X152254800Y-71062000D01*
X118821200Y-102006400D02*
X118821200Y-104546400D01*
X118872000Y-96723200D02*
X119024400Y-96875600D01*
X136906000Y-66040000D02*
X118872000Y-66040000D01*
D20*
%TO.N,Net-(U1-GP15)*%
X129694000Y-116840000D02*
X129752000Y-116782000D01*
%TO.N,0V*%
X124307600Y-91643200D02*
X129648800Y-86302000D01*
X129648800Y-86302000D02*
X129752000Y-86302000D01*
X129657600Y-86207600D02*
X129752000Y-86302000D01*
D19*
X166065200Y-58521600D02*
X164795200Y-59791600D01*
X187858400Y-58521600D02*
X166065200Y-58521600D01*
X130106000Y-86302000D02*
X132588000Y-83820000D01*
D20*
X124307600Y-91744800D02*
X124307600Y-91643200D01*
X147532000Y-86148000D02*
X147574000Y-86106000D01*
D19*
X195072000Y-65735200D02*
X187858400Y-58521600D01*
X132588000Y-83820000D02*
X132588000Y-75692000D01*
D20*
X129694000Y-111760000D02*
X129752000Y-111702000D01*
D19*
X195072000Y-72136000D02*
X195072000Y-65735200D01*
D20*
X129752000Y-111702000D02*
X129556000Y-111506000D01*
D21*
X169824400Y-120396000D02*
X170434000Y-120396000D01*
D20*
X147532000Y-86302000D02*
X147532000Y-86148000D01*
D19*
X132588000Y-75692000D02*
X130498000Y-73602000D01*
X164795200Y-59791600D02*
X164795200Y-61061600D01*
D20*
%TO.N,Frog4*%
X184658000Y-113538000D02*
X184404000Y-113284000D01*
X184404000Y-113284000D02*
X184658000Y-113284000D01*
X184658000Y-116078000D02*
X184912000Y-116078000D01*
D19*
%TO.N,Frog1*%
X186944000Y-72390000D02*
X187960000Y-73406000D01*
D20*
X195072000Y-97282000D02*
X195580000Y-97282000D01*
D19*
X187960000Y-86106000D02*
X195580000Y-93726000D01*
X184912000Y-72390000D02*
X186944000Y-72390000D01*
X184912000Y-69850000D02*
X184912000Y-72390000D01*
X187960000Y-73406000D02*
X187960000Y-86106000D01*
X195580000Y-93726000D02*
X195580000Y-97282000D01*
D20*
%TO.N,K*%
X184912000Y-88392000D02*
X184404000Y-88392000D01*
D19*
X182626000Y-86614000D02*
X182626000Y-77216000D01*
X187960000Y-106172000D02*
X187960000Y-117348000D01*
D20*
X184658000Y-118618000D02*
X184912000Y-118618000D01*
D19*
X187960000Y-117348000D02*
X186690000Y-118618000D01*
X185420000Y-104140000D02*
X184658000Y-104140000D01*
X182626000Y-77216000D02*
X184912000Y-74930000D01*
X184658000Y-104140000D02*
X185928000Y-104140000D01*
D20*
X184912000Y-118618000D02*
X185166000Y-118364000D01*
D19*
X187960000Y-102362000D02*
X187960000Y-89814400D01*
X186182000Y-104140000D02*
X184658000Y-104140000D01*
X184962800Y-88442800D02*
X184912000Y-88392000D01*
X187960000Y-102362000D02*
X186182000Y-104140000D01*
X187960000Y-89814400D02*
X186588400Y-88442800D01*
X184404000Y-88392000D02*
X182626000Y-86614000D01*
X186588400Y-88442800D02*
X184962800Y-88442800D01*
D20*
X184658000Y-103886000D02*
X184658000Y-104140000D01*
D19*
X185928000Y-104140000D02*
X187960000Y-106172000D01*
X186690000Y-118618000D02*
X184658000Y-118618000D01*
D20*
%TO.N,OUT1*%
X167386000Y-116840000D02*
X160274000Y-116840000D01*
X168148000Y-116078000D02*
X167386000Y-116840000D01*
X177038000Y-116078000D02*
X168148000Y-116078000D01*
%TO.N,OUT2*%
X154432000Y-110744000D02*
X160274000Y-110744000D01*
X150934000Y-114242000D02*
X154432000Y-110744000D01*
X169672000Y-108204000D02*
X174244000Y-108204000D01*
X147532000Y-114242000D02*
X150934000Y-114242000D01*
X160274000Y-110744000D02*
X167132000Y-110744000D01*
X167132000Y-110744000D02*
X169672000Y-108204000D01*
X174244000Y-108204000D02*
X177038000Y-110998000D01*
%TO.N,Net-(LED3-K)*%
X161036000Y-94488000D02*
X160274000Y-94488000D01*
%TO.N,OUT3*%
X151282400Y-107137200D02*
X156260800Y-107137200D01*
X177038000Y-102108000D02*
X177038000Y-101600000D01*
X147532000Y-109162000D02*
X149257600Y-109162000D01*
X147574000Y-108712000D02*
X147532000Y-108754000D01*
X167538400Y-101600000D02*
X166014400Y-103124000D01*
X166014400Y-103124000D02*
X160274000Y-103124000D01*
X177038000Y-101600000D02*
X167538400Y-101600000D01*
X147828000Y-108966000D02*
X147574000Y-108712000D01*
X176784000Y-101854000D02*
X177038000Y-101600000D01*
X156260800Y-107137200D02*
X160274000Y-103124000D01*
X147532000Y-108754000D02*
X147532000Y-109162000D01*
X149257600Y-109162000D02*
X151282400Y-107137200D01*
%TO.N,OUT4*%
X165608000Y-93472000D02*
X173990000Y-93472000D01*
X176530000Y-96520000D02*
X177038000Y-96520000D01*
X173990000Y-93472000D02*
X177038000Y-96520000D01*
X162052000Y-97028000D02*
X165608000Y-93472000D01*
X160274000Y-97028000D02*
X162052000Y-97028000D01*
%TO.N,OUT5*%
X149410000Y-104082000D02*
X147532000Y-104082000D01*
X156718000Y-93421200D02*
X151130000Y-99009200D01*
X151130000Y-102362000D02*
X149410000Y-104082000D01*
X177292000Y-86106000D02*
X177292000Y-85852000D01*
X175514000Y-85852000D02*
X171450000Y-89916000D01*
X151130000Y-99009200D02*
X151130000Y-102362000D01*
X171450000Y-89916000D02*
X160274000Y-89916000D01*
X160274000Y-89916000D02*
X156718000Y-93472000D01*
X177292000Y-85852000D02*
X175514000Y-85852000D01*
X156718000Y-93472000D02*
X156718000Y-93421200D01*
%TO.N,Net-(LED5-K)*%
X160223200Y-81229200D02*
X160274000Y-81280000D01*
X157988000Y-81229200D02*
X160223200Y-81229200D01*
X152675200Y-77012800D02*
X153771600Y-77012800D01*
X153771600Y-77012800D02*
X157988000Y-81229200D01*
%TO.N,OUT6*%
X149606000Y-100076000D02*
X148140000Y-101542000D01*
X164439600Y-79654400D02*
X160274000Y-83820000D01*
X173532800Y-80772000D02*
X177292000Y-80772000D01*
X148140000Y-101542000D02*
X147532000Y-101542000D01*
X160274000Y-83820000D02*
X149606000Y-94488000D01*
X172415200Y-79654400D02*
X164439600Y-79654400D01*
X149606000Y-94488000D02*
X149606000Y-100076000D01*
X172415200Y-79654400D02*
X173532800Y-80772000D01*
%TO.N,Net-(LED7-K)*%
X152603200Y-74218800D02*
X152603200Y-74168000D01*
X152603200Y-74168000D02*
X152654000Y-74117200D01*
X152704800Y-74168000D02*
X160274000Y-74168000D01*
X152654000Y-74117200D02*
X152704800Y-74168000D01*
%TO.N,OUT8*%
X162560000Y-70612000D02*
X160274000Y-70612000D01*
X167132000Y-66040000D02*
X176022000Y-66040000D01*
X176022000Y-66040000D02*
X177292000Y-67310000D01*
X167132000Y-66040000D02*
X162560000Y-70612000D01*
%TO.N,Net-(LED9-K)*%
X122123200Y-81584800D02*
X124307600Y-81584800D01*
X118364000Y-85344000D02*
X122123200Y-81584800D01*
D21*
X118364000Y-85344000D02*
X118618000Y-85344000D01*
D20*
%TO.N,Net-(U4-1C)*%
X174244000Y-99060000D02*
X177038000Y-99060000D01*
X177038000Y-99060000D02*
X178308000Y-99060000D01*
X170688000Y-95504000D02*
X174244000Y-99060000D01*
X179832000Y-100584000D02*
X179832000Y-102870000D01*
X179832000Y-102870000D02*
X178562000Y-104140000D01*
X178308000Y-99060000D02*
X179832000Y-100584000D01*
X177800000Y-104140000D02*
X177038000Y-104140000D01*
X178562000Y-104140000D02*
X177038000Y-104140000D01*
%TO.N,Net-(U5-1C)*%
X179324000Y-114554000D02*
X179324000Y-117602000D01*
X179324000Y-117602000D02*
X178308000Y-118618000D01*
X170434000Y-110236000D02*
X171958000Y-110236000D01*
X177038000Y-113538000D02*
X178308000Y-113538000D01*
X178308000Y-118618000D02*
X177038000Y-118618000D01*
X175260000Y-113538000D02*
X177038000Y-113538000D01*
X171958000Y-110236000D02*
X175260000Y-113538000D01*
X178308000Y-113538000D02*
X179324000Y-114554000D01*
%TO.N,Net-(U2-1C)*%
X170180000Y-68326000D02*
X170688000Y-67818000D01*
X179070000Y-74930000D02*
X177292000Y-74930000D01*
X180086000Y-71120000D02*
X180086000Y-73914000D01*
X173228000Y-67818000D02*
X175260000Y-69850000D01*
X175260000Y-69850000D02*
X177292000Y-69850000D01*
X177292000Y-69850000D02*
X178816000Y-69850000D01*
X178816000Y-69850000D02*
X180086000Y-71120000D01*
X170688000Y-67818000D02*
X173228000Y-67818000D01*
X180086000Y-73914000D02*
X179070000Y-74930000D01*
%TO.N,Net-(U3-1C)*%
X178816000Y-88392000D02*
X177292000Y-88392000D01*
X179832000Y-87376000D02*
X178816000Y-88392000D01*
X179832000Y-84582000D02*
X179832000Y-87376000D01*
X170556800Y-81432400D02*
X172313600Y-81432400D01*
X178562000Y-83312000D02*
X179832000Y-84582000D01*
X174193200Y-83312000D02*
X177292000Y-83312000D01*
X177292000Y-83312000D02*
X178562000Y-83312000D01*
X172313600Y-81432400D02*
X174193200Y-83312000D01*
%TO.N,Net-(S1-NO)*%
X145738000Y-93922000D02*
X147532000Y-93922000D01*
X136398000Y-76708000D02*
X136398000Y-84582000D01*
X124206000Y-71120000D02*
X125476000Y-72390000D01*
X136398000Y-84582000D02*
X145738000Y-93922000D01*
X118625909Y-71127909D02*
X118633818Y-71120000D01*
X118633818Y-71120000D02*
X124206000Y-71120000D01*
X125476000Y-72390000D02*
X132080000Y-72390000D01*
X132080000Y-72390000D02*
X136398000Y-76708000D01*
%TO.N,3V3*%
X118516400Y-87884000D02*
X118567200Y-87934800D01*
X118618000Y-87630000D02*
X118364000Y-87884000D01*
X118364000Y-87884000D02*
X118516400Y-87884000D01*
%TO.N,12V*%
X167182800Y-60756800D02*
X166979600Y-60756800D01*
X167741600Y-61264800D02*
X167284000Y-61264800D01*
X167284000Y-61264800D02*
X166950000Y-60930800D01*
D19*
X167335200Y-61061600D02*
X185470800Y-61061600D01*
X185470800Y-61061600D02*
X190296800Y-65887600D01*
X194935200Y-82499200D02*
X195072000Y-82636000D01*
D20*
X167741600Y-61061600D02*
X167894000Y-60909200D01*
D19*
X190296800Y-65887600D02*
X190296800Y-80314800D01*
D20*
X167335200Y-61061600D02*
X167741600Y-61061600D01*
D19*
X190296800Y-80314800D02*
X192618000Y-82636000D01*
D20*
X167008800Y-60930800D02*
X167182800Y-60756800D01*
D19*
X192618000Y-82636000D02*
X195072000Y-82636000D01*
D20*
X166950000Y-60930800D02*
X167008800Y-60930800D01*
%TD*%
M02*
