M48
; DRILL file {KiCad 8.0.8} date 2025-03-04T21:19:54+0000
; FORMAT={-:-/ absolute / inch / decimal}
; #@! TF.CreationDate,2025-03-04T21:19:54+00:00
; #@! TF.GenerationSoftware,Kicad,Pcbnew,8.0.8
; #@! TF.FileFunction,Plated,1,2,PTH
FMAT,2
INCH
; #@! TA.AperFunction,Plated,PTH,ComponentDrill
T1C0.0300
; #@! TA.AperFunction,Plated,PTH,ComponentDrill
T2C0.0335
; #@! TA.AperFunction,Plated,PTH,ComponentDrill
T3C0.0358
; #@! TA.AperFunction,Plated,PTH,ComponentDrill
T4C0.0394
; #@! TA.AperFunction,Plated,PTH,ComponentDrill
T5C0.0433
; #@! TA.AperFunction,Plated,PTH,ComponentDrill
T6C0.0512
%
G90
G05
T1
X4.894Y-3.212
X4.894Y-3.612
X5.1083Y-2.6977
X5.1083Y-2.7977
X5.1083Y-2.8977
X5.1083Y-2.9977
X5.1083Y-3.0977
X5.1083Y-3.1977
X5.1083Y-3.2977
X5.1083Y-3.3977
X5.1083Y-3.4977
X5.1083Y-3.5977
X5.1083Y-3.6977
X5.1083Y-3.7977
X5.1083Y-3.8977
X5.1083Y-3.9977
X5.1083Y-4.0977
X5.1083Y-4.1977
X5.1083Y-4.2977
X5.1083Y-4.3977
X5.1083Y-4.4977
X5.1083Y-4.5977
X5.8083Y-2.6977
X5.8083Y-2.7977
X5.8083Y-2.8977
X5.8083Y-2.9977
X5.8083Y-3.0977
X5.8083Y-3.1977
X5.8083Y-3.2977
X5.8083Y-3.3977
X5.8083Y-3.4977
X5.8083Y-3.5977
X5.8083Y-3.6977
X5.8083Y-3.7977
X5.8083Y-3.8977
X5.8083Y-3.9977
X5.8083Y-4.0977
X5.8083Y-4.1977
X5.8083Y-4.2977
X5.8083Y-4.3977
X5.8083Y-4.4977
X5.8083Y-4.5977
X6.008Y-2.522
X6.008Y-2.922
X6.0108Y-3.032
X6.0108Y-3.432
X6.012Y-4.262
X6.012Y-4.662
X6.016Y-3.72
X6.016Y-4.12
X6.71Y-4.34
X6.71Y-4.74
X6.7148Y-3.206
X6.7148Y-3.606
X6.72Y-2.67
X6.72Y-3.07
X6.72Y-3.76
X6.72Y-4.16
X6.97Y-3.8
X6.97Y-3.9
X6.97Y-4.0
X6.97Y-4.1
X6.97Y-4.37
X6.97Y-4.47
X6.97Y-4.57
X6.97Y-4.67
X6.98Y-2.65
X6.98Y-2.75
X6.98Y-2.85
X6.98Y-2.95
X6.98Y-3.18
X6.98Y-3.28
X6.98Y-3.38
X6.98Y-3.48
X7.27Y-3.8
X7.27Y-3.9
X7.27Y-4.0
X7.27Y-4.1
X7.27Y-4.37
X7.27Y-4.47
X7.27Y-4.57
X7.27Y-4.67
X7.28Y-2.65
X7.28Y-2.75
X7.28Y-2.85
X7.28Y-2.95
X7.28Y-3.18
X7.28Y-3.28
X7.28Y-3.38
X7.28Y-3.48
T2
X6.388Y-2.404
X6.488Y-2.404
X6.588Y-2.404
T3
X4.66Y-3.36
X4.66Y-3.46
X6.31Y-2.68
X6.31Y-2.78
X6.31Y-2.92
X6.31Y-3.02
X6.31Y-3.2
X6.31Y-3.3
X6.31Y-3.44
X6.31Y-3.54
X6.31Y-3.72
X6.31Y-3.82
X6.31Y-3.96
X6.31Y-4.06
X6.31Y-4.26
X6.31Y-4.36
X6.31Y-4.5
X6.31Y-4.6
T4
X4.578Y-3.816
X4.578Y-3.916
X4.578Y-4.016
X4.578Y-4.116
X4.678Y-3.816
X4.678Y-3.916
X4.678Y-4.016
X4.678Y-4.116
X4.778Y-3.816
X4.778Y-3.916
X4.778Y-4.016
X4.778Y-4.116
T5
X7.68Y-2.84
X7.68Y-2.9778
X7.68Y-3.1156
X7.68Y-3.2534
X7.7Y-3.83
X7.7Y-3.9678
X7.7Y-4.1056
X7.7Y-4.2434
T6
X4.67Y-2.8
X4.67Y-3.0559
M30
