%TF.GenerationSoftware,KiCad,Pcbnew,8.0.8*%
%TF.CreationDate,2025-03-04T21:19:46+00:00*%
%TF.ProjectId,Servo Frog V4 Rev B,53657276-6f20-4467-926f-672056342052,rev?*%
%TF.SameCoordinates,Original*%
%TF.FileFunction,Copper,L1,Top*%
%TF.FilePolarity,Positive*%
%FSLAX46Y46*%
G04 Gerber Fmt 4.6, Leading zero omitted, Abs format (unit mm)*
G04 Created by KiCad (PCBNEW 8.0.8) date 2025-03-04 21:19:46*
%MOMM*%
%LPD*%
G01*
G04 APERTURE LIST*
%TA.AperFunction,ComponentPad*%
%ADD10C,1.416000*%
%TD*%
%TA.AperFunction,ComponentPad*%
%ADD11C,1.524000*%
%TD*%
%TA.AperFunction,ComponentPad*%
%ADD12R,1.524000X1.524000*%
%TD*%
%TA.AperFunction,ComponentPad*%
%ADD13R,1.650000X1.650000*%
%TD*%
%TA.AperFunction,ComponentPad*%
%ADD14C,1.650000*%
%TD*%
%TA.AperFunction,ComponentPad*%
%ADD15R,1.350000X1.350000*%
%TD*%
%TA.AperFunction,ComponentPad*%
%ADD16C,1.350000*%
%TD*%
%TA.AperFunction,ComponentPad*%
%ADD17R,1.950000X1.950000*%
%TD*%
%TA.AperFunction,ComponentPad*%
%ADD18C,1.950000*%
%TD*%
%TA.AperFunction,Conductor*%
%ADD19C,0.200000*%
%TD*%
%TA.AperFunction,Conductor*%
%ADD20C,1.000000*%
%TD*%
%TA.AperFunction,Conductor*%
%ADD21C,0.500000*%
%TD*%
G04 APERTURE END LIST*
D10*
%TO.P,Fr4 J,1,K*%
%TO.N,Net-(LED1-K)*%
X160274000Y-108204000D03*
%TO.P,Fr4 J,2,A*%
%TO.N,OUT2*%
X160274000Y-110744000D03*
%TD*%
D11*
%TO.P,U2,1,1A*%
%TO.N,OUT8*%
X177292000Y-67310000D03*
%TO.P,U2,2,1C*%
%TO.N,Net-(U2-1C)*%
X177292000Y-69850000D03*
%TO.P,U2,3,2A*%
%TO.N,OUT7*%
X177292000Y-72390000D03*
%TO.P,U2,4,2C*%
%TO.N,Net-(U2-1C)*%
X177292000Y-74930000D03*
%TO.P,U2,5,2D*%
%TO.N,K*%
X184912000Y-74930000D03*
%TO.P,U2,6,2D*%
%TO.N,Frog1*%
X184912000Y-72390000D03*
%TO.P,U2,7,1D*%
X184912000Y-69850000D03*
%TO.P,U2,8,1D*%
%TO.N,J*%
X184912000Y-67310000D03*
%TD*%
%TO.P,R7,1*%
%TO.N,Net-(U3-1C)*%
X170556800Y-81432400D03*
%TO.P,R7,2*%
%TO.N,0V*%
X170556800Y-91592400D03*
%TD*%
%TO.P,U3,1,1A*%
%TO.N,OUT6*%
X177292000Y-80772000D03*
%TO.P,U3,2,1C*%
%TO.N,Net-(U3-1C)*%
X177292000Y-83312000D03*
%TO.P,U3,3,2A*%
%TO.N,OUT5*%
X177292000Y-85852000D03*
%TO.P,U3,4,2C*%
%TO.N,Net-(U3-1C)*%
X177292000Y-88392000D03*
%TO.P,U3,5,2D*%
%TO.N,K*%
X184912000Y-88392000D03*
%TO.P,U3,6,2D*%
%TO.N,Frog2*%
X184912000Y-85852000D03*
%TO.P,U3,7,1D*%
X184912000Y-83312000D03*
%TO.P,U3,8,1D*%
%TO.N,J*%
X184912000Y-80772000D03*
%TD*%
D12*
%TO.P,U1,1,GP0*%
%TO.N,unconnected-(U1-GP0-Pad1)*%
X129752000Y-68522000D03*
D11*
%TO.P,U1,2,GP1*%
%TO.N,unconnected-(U1-GP1-Pad2)*%
X129752000Y-71062000D03*
%TO.P,U1,3,GND*%
%TO.N,0V*%
X129752000Y-73602000D03*
%TO.P,U1,4,GP2*%
%TO.N,unconnected-(U1-GP2-Pad4)*%
X129752000Y-76142000D03*
%TO.P,U1,5,GP3*%
%TO.N,unconnected-(U1-GP3-Pad5)*%
X129752000Y-78682000D03*
%TO.P,U1,6,GP4*%
%TO.N,unconnected-(U1-GP4-Pad6)*%
X129752000Y-81222000D03*
%TO.P,U1,7,GP5*%
%TO.N,unconnected-(U1-GP5-Pad7)*%
X129752000Y-83762000D03*
%TO.P,U1,8,GND*%
%TO.N,0V*%
X129752000Y-86302000D03*
%TO.P,U1,9,GP6*%
%TO.N,unconnected-(U1-GP6-Pad9)*%
X129752000Y-88842000D03*
%TO.P,U1,10,GP7*%
%TO.N,unconnected-(U1-GP7-Pad10)*%
X129752000Y-91382000D03*
%TO.P,U1,11,GP8*%
%TO.N,unconnected-(U1-GP8-Pad11)*%
X129752000Y-93922000D03*
%TO.P,U1,12,GP9*%
%TO.N,unconnected-(U1-GP9-Pad12)*%
X129752000Y-96462000D03*
%TO.P,U1,13,GND*%
%TO.N,0V*%
X129752000Y-99002000D03*
%TO.P,U1,14,GP10*%
%TO.N,unconnected-(U1-GP10-Pad14)*%
X129752000Y-101542000D03*
%TO.P,U1,15,GP11*%
%TO.N,unconnected-(U1-GP11-Pad15)*%
X129752000Y-104082000D03*
%TO.P,U1,16,GP12*%
%TO.N,Net-(U1-GP12)*%
X129752000Y-106622000D03*
%TO.P,U1,17,GP13*%
%TO.N,Net-(U1-GP13)*%
X129752000Y-109162000D03*
%TO.P,U1,18,GND*%
%TO.N,0V*%
X129752000Y-111702000D03*
%TO.P,U1,19,GP14*%
%TO.N,Net-(U1-GP14)*%
X129752000Y-114242000D03*
%TO.P,U1,20,GP15*%
%TO.N,Net-(U1-GP15)*%
X129752000Y-116782000D03*
%TO.P,U1,21,GP16*%
%TO.N,OUT1*%
X147532000Y-116782000D03*
%TO.P,U1,22,GP17*%
%TO.N,OUT2*%
X147532000Y-114242000D03*
%TO.P,U1,23,GND*%
%TO.N,0V*%
X147532000Y-111702000D03*
%TO.P,U1,24,GP18*%
%TO.N,OUT3*%
X147532000Y-109162000D03*
%TO.P,U1,25,GP19*%
%TO.N,OUT4*%
X147532000Y-106622000D03*
%TO.P,U1,26,GP20*%
%TO.N,OUT5*%
X147532000Y-104082000D03*
%TO.P,U1,27,GP21*%
%TO.N,OUT6*%
X147532000Y-101542000D03*
%TO.P,U1,28,GND*%
%TO.N,0V*%
X147532000Y-99002000D03*
%TO.P,U1,29,GP22*%
%TO.N,OUT7*%
X147532000Y-96462000D03*
%TO.P,U1,30,RUN*%
%TO.N,Net-(S1-NO)*%
X147532000Y-93922000D03*
%TO.P,U1,31,GP26*%
%TO.N,OUT8*%
X147532000Y-91382000D03*
%TO.P,U1,32,GP27*%
%TO.N,unconnected-(U1-GP27-Pad32)*%
X147532000Y-88842000D03*
%TO.P,U1,33,GND*%
%TO.N,0V*%
X147532000Y-86302000D03*
%TO.P,U1,34,GP28*%
%TO.N,unconnected-(U1-GP28-Pad34)*%
X147532000Y-83762000D03*
%TO.P,U1,35,ADC_VREF*%
%TO.N,unconnected-(U1-ADC_VREF-Pad35)*%
X147532000Y-81222000D03*
%TO.P,U1,36,3V3(OUT)*%
%TO.N,3V3*%
X147532000Y-78682000D03*
%TO.P,U1,37,3V3_EN*%
%TO.N,unconnected-(U1-3V3_EN-Pad37)*%
X147532000Y-76142000D03*
%TO.P,U1,38,GND*%
%TO.N,0V*%
X147532000Y-73602000D03*
%TO.P,U1,39,VSYS*%
%TO.N,5V*%
X147532000Y-71062000D03*
%TO.P,U1,40,VBUS*%
%TO.N,unconnected-(U1-VBUS-Pad40)*%
X147532000Y-68522000D03*
%TD*%
D13*
%TO.P,J3,1,1*%
%TO.N,0V*%
X195072000Y-72136000D03*
D14*
%TO.P,J3,2,2*%
%TO.N,J*%
X195072000Y-75636000D03*
%TO.P,J3,3,3*%
%TO.N,K*%
X195072000Y-79136000D03*
%TO.P,J3,4,4*%
%TO.N,12V*%
X195072000Y-82636000D03*
%TD*%
D11*
%TO.P,U4,1,1A*%
%TO.N,OUT4*%
X177038000Y-96520000D03*
%TO.P,U4,2,1C*%
%TO.N,Net-(U4-1C)*%
X177038000Y-99060000D03*
%TO.P,U4,3,2A*%
%TO.N,OUT3*%
X177038000Y-101600000D03*
%TO.P,U4,4,2C*%
%TO.N,Net-(U4-1C)*%
X177038000Y-104140000D03*
%TO.P,U4,5,2D*%
%TO.N,K*%
X184658000Y-104140000D03*
%TO.P,U4,6,2D*%
%TO.N,Frog3*%
X184658000Y-101600000D03*
%TO.P,U4,7,1D*%
X184658000Y-99060000D03*
%TO.P,U4,8,1D*%
%TO.N,J*%
X184658000Y-96520000D03*
%TD*%
%TO.P,R4,1*%
%TO.N,Net-(U4-1C)*%
X170688000Y-95504000D03*
%TO.P,R4,2*%
%TO.N,0V*%
X170688000Y-105664000D03*
%TD*%
%TO.P,R8,1*%
%TO.N,Net-(LED5-K)*%
X152675200Y-77012800D03*
%TO.P,R8,2*%
%TO.N,0V*%
X152675200Y-87172800D03*
%TD*%
D10*
%TO.P,Fr3 J,1,K*%
%TO.N,Net-(LED3-K)*%
X160274000Y-94488000D03*
%TO.P,Fr3 J,2,A*%
%TO.N,OUT4*%
X160274000Y-97028000D03*
%TD*%
D11*
%TO.P,R9,1*%
%TO.N,Net-(LED7-K)*%
X152603200Y-74218800D03*
%TO.P,R9,2*%
%TO.N,0V*%
X152603200Y-64058800D03*
%TD*%
%TO.P,U5,1,1A*%
%TO.N,OUT2*%
X177038000Y-110998000D03*
%TO.P,U5,2,1C*%
%TO.N,Net-(U5-1C)*%
X177038000Y-113538000D03*
%TO.P,U5,3,2A*%
%TO.N,OUT1*%
X177038000Y-116078000D03*
%TO.P,U5,4,2C*%
%TO.N,Net-(U5-1C)*%
X177038000Y-118618000D03*
%TO.P,U5,5,2D*%
%TO.N,K*%
X184658000Y-118618000D03*
%TO.P,U5,6,2D*%
%TO.N,Frog4*%
X184658000Y-116078000D03*
%TO.P,U5,7,1D*%
X184658000Y-113538000D03*
%TO.P,U5,8,1D*%
%TO.N,J*%
X184658000Y-110998000D03*
%TD*%
D10*
%TO.P,Fr2 K,1,K*%
%TO.N,Net-(LED5-K)*%
X160274000Y-87376000D03*
%TO.P,Fr2 K,2,A*%
%TO.N,OUT5*%
X160274000Y-89916000D03*
%TD*%
D11*
%TO.P,R5,1*%
%TO.N,Net-(U5-1C)*%
X170434000Y-110236000D03*
%TO.P,R5,2*%
%TO.N,0V*%
X170434000Y-120396000D03*
%TD*%
%TO.P,J4,1*%
%TO.N,0V*%
X116281200Y-96926400D03*
%TO.P,J4,2*%
X116281200Y-99466400D03*
%TO.P,J4,3*%
X116281200Y-102006400D03*
%TO.P,J4,4*%
X116281200Y-104546400D03*
%TO.P,J4,9*%
%TO.N,5V*%
X118821200Y-96926400D03*
%TO.P,J4,10*%
X118821200Y-99466400D03*
%TO.P,J4,11*%
X118821200Y-102006400D03*
%TO.P,J4,12*%
X118821200Y-104546400D03*
%TO.P,J4,17*%
%TO.N,Net-(U1-GP12)*%
X121361200Y-96926400D03*
%TO.P,J4,18*%
%TO.N,Net-(U1-GP13)*%
X121361200Y-99466400D03*
%TO.P,J4,19*%
%TO.N,Net-(U1-GP14)*%
X121361200Y-102006400D03*
%TO.P,J4,20*%
%TO.N,Net-(U1-GP15)*%
X121361200Y-104546400D03*
%TD*%
%TO.P,R2,1*%
%TO.N,Net-(LED3-K)*%
X152806400Y-94488000D03*
%TO.P,R2,2*%
%TO.N,0V*%
X152806400Y-104648000D03*
%TD*%
D15*
%TO.P,PS1,1,+VIN*%
%TO.N,12V*%
X167335200Y-61061600D03*
D16*
%TO.P,PS1,2,GND*%
%TO.N,0V*%
X164795200Y-61061600D03*
%TO.P,PS1,3,+VOUT*%
%TO.N,5V*%
X162255200Y-61061600D03*
%TD*%
D10*
%TO.P,Power,1,K*%
%TO.N,Net-(LED9-K)*%
X118364000Y-85344000D03*
%TO.P,Power,2,A*%
%TO.N,3V3*%
X118364000Y-87884000D03*
%TD*%
%TO.P,Fr4 K,1,K*%
%TO.N,Net-(LED1-K)*%
X160274000Y-114300000D03*
%TO.P,Fr4 K,2,A*%
%TO.N,OUT1*%
X160274000Y-116840000D03*
%TD*%
D17*
%TO.P,S1,T1,COM*%
%TO.N,0V*%
X118618000Y-77620000D03*
D18*
%TO.P,S1,T2,NO*%
%TO.N,Net-(S1-NO)*%
X118618000Y-71120000D03*
%TD*%
D10*
%TO.P,Fr1 J,1,K*%
%TO.N,Net-(LED7-K)*%
X160274000Y-68072000D03*
%TO.P,Fr1 J,2,A*%
%TO.N,OUT8*%
X160274000Y-70612000D03*
%TD*%
D11*
%TO.P,R3,1*%
%TO.N,Net-(LED9-K)*%
X124307600Y-81584800D03*
%TO.P,R3,2*%
%TO.N,0V*%
X124307600Y-91744800D03*
%TD*%
%TO.P,R1,1*%
%TO.N,Net-(LED1-K)*%
X152704800Y-108254800D03*
%TO.P,R1,2*%
%TO.N,0V*%
X152704800Y-118414800D03*
%TD*%
D10*
%TO.P,Fr3 K,1,K*%
%TO.N,Net-(LED3-K)*%
X160274000Y-100584000D03*
%TO.P,Fr3 K,2,A*%
%TO.N,OUT3*%
X160274000Y-103124000D03*
%TD*%
%TO.P,Fr2 J,1,K*%
%TO.N,Net-(LED5-K)*%
X160274000Y-81280000D03*
%TO.P,Fr2 J,2,A*%
%TO.N,OUT6*%
X160274000Y-83820000D03*
%TD*%
%TO.P,Fr1 K,1,K*%
%TO.N,Net-(LED7-K)*%
X160274000Y-74168000D03*
%TO.P,Fr1 K,2,A*%
%TO.N,OUT7*%
X160274000Y-76708000D03*
%TD*%
D11*
%TO.P,R6,1*%
%TO.N,Net-(U2-1C)*%
X170688000Y-67818000D03*
%TO.P,R6,2*%
%TO.N,0V*%
X170688000Y-77978000D03*
%TD*%
D13*
%TO.P,J2,1,1*%
%TO.N,Frog1*%
X195580000Y-97282000D03*
D14*
%TO.P,J2,2,2*%
%TO.N,Frog2*%
X195580000Y-100782000D03*
%TO.P,J2,3,3*%
%TO.N,Frog3*%
X195580000Y-104282000D03*
%TO.P,J2,4,4*%
%TO.N,Frog4*%
X195580000Y-107782000D03*
%TD*%
D19*
%TO.N,5V*%
X147532000Y-70908000D02*
X147574000Y-70866000D01*
X147532000Y-71062000D02*
X147632000Y-71062000D01*
X147886000Y-71062000D02*
X147532000Y-71062000D01*
X147532000Y-71062000D02*
X147532000Y-70908000D01*
%TO.N,Net-(U1-GP15)*%
X127602400Y-116782000D02*
X129752000Y-116782000D01*
X123444000Y-112623600D02*
X127602400Y-116782000D01*
X121361200Y-104546400D02*
X122631200Y-104546400D01*
X129694000Y-116840000D02*
X129752000Y-116782000D01*
X122631200Y-104546400D02*
X123444000Y-105359200D01*
X123444000Y-105359200D02*
X123444000Y-112623600D01*
D20*
%TO.N,0V*%
X129752000Y-86302000D02*
X147532000Y-86302000D01*
X129752000Y-99002000D02*
X147532000Y-99002000D01*
D19*
X129752000Y-99002000D02*
X130498000Y-99002000D01*
X147532000Y-99002000D02*
X150056000Y-99002000D01*
D20*
X164795200Y-62433200D02*
X164795200Y-61061600D01*
D19*
X152857200Y-101803200D02*
X152857200Y-104597200D01*
X150056000Y-99002000D02*
X152857200Y-101803200D01*
X147532000Y-73602000D02*
X147632000Y-73602000D01*
D20*
X174040800Y-104648000D02*
X173024800Y-105664000D01*
D19*
X170942000Y-77724000D02*
X170688000Y-77978000D01*
X129752000Y-73602000D02*
X129694000Y-73660000D01*
X147532000Y-73602000D02*
X147886000Y-73602000D01*
X130498000Y-86302000D02*
X129752000Y-86302000D01*
X145338800Y-113842800D02*
X145338800Y-117246400D01*
X170332400Y-120294400D02*
X170434000Y-120396000D01*
D20*
X116230400Y-91948000D02*
X116230400Y-96875600D01*
X179578000Y-63957200D02*
X166319200Y-63957200D01*
D19*
X170455200Y-91490800D02*
X170556800Y-91592400D01*
D20*
X147532000Y-111702000D02*
X130244000Y-111702000D01*
X174040800Y-92659200D02*
X174040800Y-104648000D01*
X132842000Y-88646000D02*
X132842000Y-96520000D01*
X170688000Y-105664000D02*
X173736000Y-108712000D01*
X147312800Y-73602000D02*
X144373600Y-70662800D01*
X168706800Y-91490800D02*
X170455200Y-91490800D01*
X132842000Y-109474000D02*
X130614000Y-111702000D01*
D19*
X145338800Y-117246400D02*
X146507200Y-118414800D01*
D20*
X114503200Y-90373200D02*
X116078000Y-91948000D01*
X116281200Y-96926400D02*
X116281200Y-99466400D01*
D19*
X129752000Y-86302000D02*
X130244000Y-86302000D01*
D20*
X118618000Y-77620000D02*
X118618000Y-76149200D01*
X173024800Y-105664000D02*
X170688000Y-105664000D01*
X166319200Y-63957200D02*
X164795200Y-62433200D01*
X116230400Y-96875600D02*
X116281200Y-96926400D01*
X144373600Y-65582800D02*
X145897600Y-64058800D01*
X173736000Y-118110000D02*
X171450000Y-120396000D01*
D19*
X147479600Y-111702000D02*
X145338800Y-113842800D01*
D20*
X170688000Y-77978000D02*
X178816000Y-77978000D01*
X168656000Y-77978000D02*
X167284400Y-79349600D01*
D19*
X129744800Y-86309200D02*
X129752000Y-86302000D01*
D20*
X121107200Y-73660000D02*
X129694000Y-73660000D01*
X114503200Y-84632800D02*
X114503200Y-90373200D01*
D19*
X130048000Y-111506000D02*
X129852000Y-111702000D01*
X147532000Y-111702000D02*
X147590000Y-111760000D01*
D20*
X182219600Y-66598800D02*
X179578000Y-63957200D01*
D19*
X147828000Y-73406000D02*
X148082000Y-73660000D01*
D20*
X118618000Y-76149200D02*
X121107200Y-73660000D01*
D19*
X129752000Y-73602000D02*
X129445600Y-73602000D01*
D20*
X118618000Y-80518000D02*
X114503200Y-84632800D01*
X171450000Y-120396000D02*
X170434000Y-120396000D01*
X132842000Y-88646000D02*
X130498000Y-86302000D01*
X170556800Y-91592400D02*
X172974000Y-91592400D01*
D19*
X130360000Y-99002000D02*
X129752000Y-99002000D01*
D20*
X164795200Y-61061600D02*
X164795200Y-62230000D01*
X118618000Y-77620000D02*
X118618000Y-80518000D01*
D21*
X147262000Y-73602000D02*
X147532000Y-73602000D01*
D19*
X149548000Y-86302000D02*
X150469600Y-87223600D01*
X147532000Y-111702000D02*
X146768400Y-111702000D01*
D20*
X172974000Y-91592400D02*
X174040800Y-92659200D01*
D19*
X130614000Y-111702000D02*
X129752000Y-111702000D01*
X146507200Y-118414800D02*
X152704800Y-118414800D01*
D20*
X182219600Y-74574400D02*
X182219600Y-66598800D01*
X178816000Y-77978000D02*
X182219600Y-74574400D01*
D19*
X152857200Y-104597200D02*
X152806400Y-104648000D01*
X152624400Y-87223600D02*
X152675200Y-87172800D01*
X171500800Y-77724000D02*
X170942000Y-77724000D01*
D20*
X170688000Y-77978000D02*
X168656000Y-77978000D01*
X132842000Y-101346000D02*
X132842000Y-109474000D01*
X116281200Y-99466400D02*
X116281200Y-102006400D01*
X116281200Y-102006400D02*
X116281200Y-104546400D01*
D19*
X129752000Y-86302000D02*
X130106000Y-86302000D01*
X129852000Y-111702000D02*
X129752000Y-111702000D01*
D20*
X116078000Y-91948000D02*
X116230400Y-91948000D01*
D19*
X130244000Y-111702000D02*
X130048000Y-111506000D01*
D20*
X167284400Y-90068400D02*
X168706800Y-91490800D01*
X173736000Y-108712000D02*
X173736000Y-118110000D01*
X167284400Y-79349600D02*
X167284400Y-90068400D01*
X145897600Y-64058800D02*
X152603200Y-64058800D01*
X152603200Y-64058800D02*
X162966400Y-64058800D01*
X147532000Y-73602000D02*
X147312800Y-73602000D01*
X129752000Y-73602000D02*
X147532000Y-73602000D01*
X130498000Y-99002000D02*
X132842000Y-101346000D01*
D19*
X147532000Y-86302000D02*
X149548000Y-86302000D01*
X150469600Y-87223600D02*
X152624400Y-87223600D01*
D20*
X162966400Y-64058800D02*
X164795200Y-62230000D01*
D19*
X147532000Y-111702000D02*
X147479600Y-111702000D01*
D20*
X144373600Y-70662800D02*
X144373600Y-65582800D01*
D19*
X147632000Y-73602000D02*
X147828000Y-73406000D01*
D20*
X132842000Y-96520000D02*
X130360000Y-99002000D01*
D19*
%TO.N,Net-(U1-GP12)*%
X121666000Y-96977200D02*
X123190000Y-96977200D01*
X129643200Y-106730800D02*
X129752000Y-106622000D01*
X127355600Y-105714800D02*
X128262800Y-106622000D01*
X123190000Y-96977200D02*
X127355600Y-101142800D01*
X121615200Y-96926400D02*
X121666000Y-96977200D01*
X127355600Y-101142800D02*
X127355600Y-105714800D01*
X128262800Y-106622000D02*
X129752000Y-106622000D01*
X121361200Y-96926400D02*
X121615200Y-96926400D01*
%TO.N,Net-(U1-GP14)*%
X124764800Y-103987600D02*
X124764800Y-110998000D01*
X129694000Y-114300000D02*
X129752000Y-114242000D01*
X121361200Y-102006400D02*
X122783600Y-102006400D01*
X124764800Y-110998000D02*
X128008800Y-114242000D01*
X128008800Y-114242000D02*
X129752000Y-114242000D01*
X122783600Y-102006400D02*
X124764800Y-103987600D01*
%TO.N,Net-(U1-GP13)*%
X125933200Y-102616000D02*
X125933200Y-107696000D01*
X127399200Y-109162000D02*
X129752000Y-109162000D01*
X129440000Y-109474000D02*
X129752000Y-109162000D01*
X125933200Y-107696000D02*
X127399200Y-109162000D01*
X121361200Y-99466400D02*
X122783600Y-99466400D01*
X122783600Y-99466400D02*
X125933200Y-102616000D01*
D20*
%TO.N,Frog4*%
X184658000Y-113538000D02*
X184658000Y-116078000D01*
X184658000Y-113538000D02*
X189824000Y-113538000D01*
X189824000Y-113538000D02*
X195580000Y-107782000D01*
%TO.N,Frog3*%
X195569600Y-104292400D02*
X190449200Y-104292400D01*
X187756800Y-101600000D02*
X184658000Y-101600000D01*
D19*
X195569600Y-104292400D02*
X195580000Y-104282000D01*
D20*
X184658000Y-99060000D02*
X184658000Y-101600000D01*
X190449200Y-104292400D02*
X187756800Y-101600000D01*
%TO.N,Frog2*%
X184912000Y-85852000D02*
X184912000Y-83312000D01*
X189992000Y-97790000D02*
X192984000Y-100782000D01*
D21*
X195382000Y-100584000D02*
X195580000Y-100782000D01*
D20*
X192984000Y-100782000D02*
X195580000Y-100782000D01*
X189992000Y-88646000D02*
X189992000Y-97790000D01*
X184912000Y-85852000D02*
X187198000Y-85852000D01*
X187198000Y-85852000D02*
X189992000Y-88646000D01*
D19*
%TO.N,J*%
X184658000Y-110236000D02*
X184658000Y-110998000D01*
X184912000Y-81026000D02*
X184912000Y-80772000D01*
D20*
X182930800Y-80772000D02*
X184912000Y-80772000D01*
X182880000Y-80721200D02*
X182930800Y-80772000D01*
D19*
X195128000Y-75692000D02*
X195072000Y-75636000D01*
D20*
X198628000Y-70866000D02*
X198628000Y-72390000D01*
X181610000Y-92964000D02*
X181610000Y-93472000D01*
X181610000Y-92964000D02*
X181559200Y-92913200D01*
X184912000Y-67310000D02*
X195072000Y-67310000D01*
X198628000Y-72390000D02*
X195382000Y-75636000D01*
X181559200Y-82042000D02*
X182880000Y-80721200D01*
X184912000Y-80772000D02*
X186944000Y-80772000D01*
X181660800Y-108000800D02*
X181660800Y-99517200D01*
X192024000Y-85852000D02*
X195072000Y-85852000D01*
D19*
X195382000Y-75636000D02*
X195072000Y-75636000D01*
D20*
X184658000Y-110998000D02*
X181660800Y-108000800D01*
D19*
X195072000Y-75636000D02*
X195072000Y-75438000D01*
D20*
X186944000Y-80772000D02*
X192024000Y-85852000D01*
X198120000Y-82804000D02*
X195072000Y-85852000D01*
X195072000Y-75438000D02*
X198120000Y-78486000D01*
X195072000Y-67310000D02*
X198628000Y-70866000D01*
X181559200Y-92913200D02*
X181559200Y-82042000D01*
X181660800Y-99517200D02*
X184658000Y-96520000D01*
X198120000Y-78486000D02*
X198120000Y-82804000D01*
X184658000Y-96520000D02*
X181610000Y-93472000D01*
%TO.N,K*%
X193283600Y-79136000D02*
X195072000Y-79136000D01*
D19*
X184912000Y-74930000D02*
X184962800Y-74879200D01*
D20*
X189026800Y-74879200D02*
X193283600Y-79136000D01*
X184962800Y-74879200D02*
X189026800Y-74879200D01*
D19*
%TO.N,Net-(LED1-K)*%
X152755600Y-108204000D02*
X152704800Y-108254800D01*
X161036000Y-108204000D02*
X160274000Y-108204000D01*
X162306000Y-112268000D02*
X162306000Y-109474000D01*
X162306000Y-109474000D02*
X161036000Y-108204000D01*
X160274000Y-108204000D02*
X152755600Y-108204000D01*
X160274000Y-114300000D02*
X162306000Y-112268000D01*
%TO.N,OUT1*%
X160216000Y-116782000D02*
X160274000Y-116840000D01*
X147532000Y-116782000D02*
X160216000Y-116782000D01*
%TO.N,Net-(LED3-K)*%
X152806400Y-94488000D02*
X160274000Y-94488000D01*
X160274000Y-100584000D02*
X162052000Y-98806000D01*
X162052000Y-95504000D02*
X161036000Y-94488000D01*
X162052000Y-98806000D02*
X162052000Y-95504000D01*
X160274000Y-100584000D02*
X160274000Y-100330000D01*
%TO.N,OUT4*%
X158750000Y-97028000D02*
X160274000Y-97028000D01*
X176911000Y-95885000D02*
X177038000Y-96012000D01*
X158750000Y-97028000D02*
X156210000Y-99568000D01*
X152966000Y-106622000D02*
X147532000Y-106622000D01*
X156210000Y-103378000D02*
X152966000Y-106622000D01*
X156210000Y-99568000D02*
X156210000Y-103378000D01*
%TO.N,Net-(LED5-K)*%
X162560000Y-83312000D02*
X162560000Y-85344000D01*
X162560000Y-85344000D02*
X160528000Y-87376000D01*
X160528000Y-81280000D02*
X162560000Y-83312000D01*
X160528000Y-87376000D02*
X160274000Y-87376000D01*
X160274000Y-81280000D02*
X160528000Y-81280000D01*
%TO.N,Net-(LED7-K)*%
X160274000Y-74168000D02*
X160274000Y-73660000D01*
X162560000Y-69088000D02*
X161544000Y-68072000D01*
X162560000Y-71374000D02*
X162560000Y-69088000D01*
X160274000Y-73660000D02*
X162560000Y-71374000D01*
X161544000Y-68072000D02*
X160274000Y-68072000D01*
%TO.N,OUT7*%
X160274000Y-76454000D02*
X160274000Y-76708000D01*
X156362400Y-88138000D02*
X148038400Y-96462000D01*
X160274000Y-76708000D02*
X156362400Y-80619600D01*
X169926000Y-72390000D02*
X165862000Y-76454000D01*
X156362400Y-80619600D02*
X156362400Y-88138000D01*
X165862000Y-76454000D02*
X160274000Y-76454000D01*
X148038400Y-96462000D02*
X147532000Y-96462000D01*
X177292000Y-72390000D02*
X169926000Y-72390000D01*
%TO.N,OUT8*%
X155194000Y-75692000D02*
X155194000Y-86766400D01*
X155194000Y-86766400D02*
X150578400Y-91382000D01*
X150578400Y-91382000D02*
X147532000Y-91382000D01*
X160274000Y-70612000D02*
X155194000Y-75692000D01*
%TO.N,Net-(LED9-K)*%
X118364000Y-85344000D02*
X118364000Y-85090000D01*
%TO.N,3V3*%
X127101600Y-86309200D02*
X125526800Y-87884000D01*
X143060000Y-78682000D02*
X141782800Y-79959200D01*
X127101600Y-81483200D02*
X127101600Y-86309200D01*
X125526800Y-87884000D02*
X118364000Y-87884000D01*
X118618000Y-88138000D02*
X118364000Y-87884000D01*
X128625600Y-79959200D02*
X127101600Y-81483200D01*
X141782800Y-79959200D02*
X128625600Y-79959200D01*
X147532000Y-78682000D02*
X143060000Y-78682000D01*
%TO.N,unconnected-(U1-GP8-Pad11)*%
X129440000Y-94234000D02*
X129752000Y-93922000D01*
%TO.N,unconnected-(U1-GP9-Pad12)*%
X129694000Y-96520000D02*
X129752000Y-96462000D01*
%TO.N,unconnected-(U1-GP10-Pad14)*%
X129440000Y-101854000D02*
X129752000Y-101542000D01*
%TO.N,unconnected-(U1-GP11-Pad15)*%
X129440000Y-104394000D02*
X129752000Y-104082000D01*
%TD*%
M02*
